<mxfile host="app.diagrams.net" agent="Mozilla/5.0 (Windows NT 10.0; Win64; x64) AppleWebKit/537.36 (KHTML, like Gecko) Chrome/114.0.0.0 Safari/537.36" version="24.7.8">
  <diagram name="第 1 页" id="j2s_BXzT2Hw-CgotgLgn">
    <mxGraphModel dx="1434" dy="764" grid="1" gridSize="10" guides="1" tooltips="1" connect="1" arrows="1" fold="1" page="1" pageScale="1" pageWidth="827" pageHeight="1169" math="0" shadow="0">
      <root>
        <mxCell id="0" />
        <mxCell id="1" parent="0" />
        <mxCell id="eGbgCsMsqUFKKg6QM9Z_-6" style="edgeStyle=orthogonalEdgeStyle;rounded=0;orthogonalLoop=1;jettySize=auto;html=1;exitX=0.5;exitY=0;exitDx=0;exitDy=0;entryX=0;entryY=0.5;entryDx=0;entryDy=0;" parent="1" source="eGbgCsMsqUFKKg6QM9Z_-1" target="eGbgCsMsqUFKKg6QM9Z_-2" edge="1">
          <mxGeometry relative="1" as="geometry" />
        </mxCell>
        <mxCell id="eGbgCsMsqUFKKg6QM9Z_-7" style="edgeStyle=orthogonalEdgeStyle;rounded=0;orthogonalLoop=1;jettySize=auto;html=1;" parent="1" source="eGbgCsMsqUFKKg6QM9Z_-1" edge="1">
          <mxGeometry relative="1" as="geometry">
            <mxPoint x="160" y="510" as="targetPoint" />
            <Array as="points">
              <mxPoint x="100" y="510" />
            </Array>
          </mxGeometry>
        </mxCell>
        <mxCell id="eGbgCsMsqUFKKg6QM9Z_-1" value="提交售后申请" style="rounded=1;whiteSpace=wrap;html=1;" parent="1" vertex="1">
          <mxGeometry x="40" y="350" width="120" height="60" as="geometry" />
        </mxCell>
        <mxCell id="eGbgCsMsqUFKKg6QM9Z_-11" style="edgeStyle=orthogonalEdgeStyle;rounded=0;orthogonalLoop=1;jettySize=auto;html=1;" parent="1" source="eGbgCsMsqUFKKg6QM9Z_-2" target="eGbgCsMsqUFKKg6QM9Z_-10" edge="1">
          <mxGeometry relative="1" as="geometry" />
        </mxCell>
        <mxCell id="eGbgCsMsqUFKKg6QM9Z_-2" value="物流经理审批" style="rounded=1;whiteSpace=wrap;html=1;" parent="1" vertex="1">
          <mxGeometry x="160" y="220" width="120" height="60" as="geometry" />
        </mxCell>
        <mxCell id="eGbgCsMsqUFKKg6QM9Z_-12" style="edgeStyle=orthogonalEdgeStyle;rounded=0;orthogonalLoop=1;jettySize=auto;html=1;entryX=0.5;entryY=1;entryDx=0;entryDy=0;" parent="1" source="eGbgCsMsqUFKKg6QM9Z_-3" target="eGbgCsMsqUFKKg6QM9Z_-10" edge="1">
          <mxGeometry relative="1" as="geometry" />
        </mxCell>
        <mxCell id="eGbgCsMsqUFKKg6QM9Z_-3" value="仓库审批" style="rounded=1;whiteSpace=wrap;html=1;" parent="1" vertex="1">
          <mxGeometry x="160" y="480" width="120" height="60" as="geometry" />
        </mxCell>
        <mxCell id="eGbgCsMsqUFKKg6QM9Z_-8" value="2-自提" style="text;strokeColor=none;fillColor=none;html=1;fontSize=24;fontStyle=1;verticalAlign=middle;align=center;" parent="1" vertex="1">
          <mxGeometry x="50" y="440" width="100" height="40" as="geometry" />
        </mxCell>
        <mxCell id="eGbgCsMsqUFKKg6QM9Z_-9" value="1-送货" style="text;strokeColor=none;fillColor=none;html=1;fontSize=24;fontStyle=1;verticalAlign=middle;align=center;" parent="1" vertex="1">
          <mxGeometry x="50" y="280" width="100" height="40" as="geometry" />
        </mxCell>
        <mxCell id="eGbgCsMsqUFKKg6QM9Z_-16" style="edgeStyle=orthogonalEdgeStyle;rounded=0;orthogonalLoop=1;jettySize=auto;html=1;" parent="1" source="eGbgCsMsqUFKKg6QM9Z_-10" target="eGbgCsMsqUFKKg6QM9Z_-13" edge="1">
          <mxGeometry relative="1" as="geometry" />
        </mxCell>
        <mxCell id="eGbgCsMsqUFKKg6QM9Z_-17" style="edgeStyle=orthogonalEdgeStyle;rounded=0;orthogonalLoop=1;jettySize=auto;html=1;" parent="1" source="eGbgCsMsqUFKKg6QM9Z_-10" target="eGbgCsMsqUFKKg6QM9Z_-14" edge="1">
          <mxGeometry relative="1" as="geometry" />
        </mxCell>
        <mxCell id="eGbgCsMsqUFKKg6QM9Z_-10" value="" style="rhombus;whiteSpace=wrap;html=1;" parent="1" vertex="1">
          <mxGeometry x="334" y="340" width="80" height="80" as="geometry" />
        </mxCell>
        <mxCell id="eGbgCsMsqUFKKg6QM9Z_-22" value="" style="edgeStyle=orthogonalEdgeStyle;rounded=0;orthogonalLoop=1;jettySize=auto;html=1;" parent="1" source="eGbgCsMsqUFKKg6QM9Z_-13" target="eGbgCsMsqUFKKg6QM9Z_-15" edge="1">
          <mxGeometry relative="1" as="geometry" />
        </mxCell>
        <mxCell id="eGbgCsMsqUFKKg6QM9Z_-13" value="产品经理审批" style="rounded=1;whiteSpace=wrap;html=1;" parent="1" vertex="1">
          <mxGeometry x="480" y="220" width="120" height="60" as="geometry" />
        </mxCell>
        <mxCell id="eGbgCsMsqUFKKg6QM9Z_-43" value="" style="edgeStyle=orthogonalEdgeStyle;rounded=0;orthogonalLoop=1;jettySize=auto;html=1;" parent="1" source="eGbgCsMsqUFKKg6QM9Z_-14" target="eGbgCsMsqUFKKg6QM9Z_-40" edge="1">
          <mxGeometry relative="1" as="geometry" />
        </mxCell>
        <mxCell id="eGbgCsMsqUFKKg6QM9Z_-14" value="确认合同客服审批" style="rounded=1;whiteSpace=wrap;html=1;" parent="1" vertex="1">
          <mxGeometry x="480" y="480" width="120" height="60" as="geometry" />
        </mxCell>
        <mxCell id="eGbgCsMsqUFKKg6QM9Z_-23" value="" style="edgeStyle=orthogonalEdgeStyle;rounded=0;orthogonalLoop=1;jettySize=auto;html=1;" parent="1" source="eGbgCsMsqUFKKg6QM9Z_-15" target="eGbgCsMsqUFKKg6QM9Z_-21" edge="1">
          <mxGeometry relative="1" as="geometry" />
        </mxCell>
        <mxCell id="eGbgCsMsqUFKKg6QM9Z_-15" value="负责人审批" style="rounded=1;whiteSpace=wrap;html=1;" parent="1" vertex="1">
          <mxGeometry x="640" y="220" width="120" height="60" as="geometry" />
        </mxCell>
        <mxCell id="eGbgCsMsqUFKKg6QM9Z_-18" value="未发货" style="text;strokeColor=none;fillColor=none;html=1;fontSize=24;fontStyle=1;verticalAlign=middle;align=center;" parent="1" vertex="1">
          <mxGeometry x="490" y="300" width="100" height="40" as="geometry" />
        </mxCell>
        <mxCell id="eGbgCsMsqUFKKg6QM9Z_-20" value="已发货" style="text;strokeColor=none;fillColor=none;html=1;fontSize=24;fontStyle=1;verticalAlign=middle;align=center;" parent="1" vertex="1">
          <mxGeometry x="490" y="430" width="100" height="40" as="geometry" />
        </mxCell>
        <mxCell id="eGbgCsMsqUFKKg6QM9Z_-26" value="弃审" style="edgeStyle=orthogonalEdgeStyle;rounded=0;orthogonalLoop=1;jettySize=auto;html=1;entryX=0;entryY=0.5;entryDx=0;entryDy=0;" parent="1" source="eGbgCsMsqUFKKg6QM9Z_-21" target="eGbgCsMsqUFKKg6QM9Z_-24" edge="1">
          <mxGeometry relative="1" as="geometry" />
        </mxCell>
        <mxCell id="eGbgCsMsqUFKKg6QM9Z_-27" value="冲单" style="edgeStyle=orthogonalEdgeStyle;rounded=0;orthogonalLoop=1;jettySize=auto;html=1;entryX=0;entryY=0.75;entryDx=0;entryDy=0;" parent="1" source="eGbgCsMsqUFKKg6QM9Z_-21" target="eGbgCsMsqUFKKg6QM9Z_-25" edge="1">
          <mxGeometry relative="1" as="geometry" />
        </mxCell>
        <mxCell id="eGbgCsMsqUFKKg6QM9Z_-21" value="仓储审批" style="rounded=1;whiteSpace=wrap;html=1;" parent="1" vertex="1">
          <mxGeometry x="800" y="220" width="120" height="60" as="geometry" />
        </mxCell>
        <mxCell id="eGbgCsMsqUFKKg6QM9Z_-28" style="edgeStyle=orthogonalEdgeStyle;rounded=0;orthogonalLoop=1;jettySize=auto;html=1;entryX=0.5;entryY=0;entryDx=0;entryDy=0;" parent="1" source="eGbgCsMsqUFKKg6QM9Z_-24" target="eGbgCsMsqUFKKg6QM9Z_-25" edge="1">
          <mxGeometry relative="1" as="geometry" />
        </mxCell>
        <mxCell id="eGbgCsMsqUFKKg6QM9Z_-24" value="确认合同客服" style="rounded=1;whiteSpace=wrap;html=1;" parent="1" vertex="1">
          <mxGeometry x="960" y="150" width="120" height="60" as="geometry" />
        </mxCell>
        <mxCell id="eGbgCsMsqUFKKg6QM9Z_-31" style="edgeStyle=orthogonalEdgeStyle;rounded=0;orthogonalLoop=1;jettySize=auto;html=1;entryX=0;entryY=0.5;entryDx=0;entryDy=0;" parent="1" source="eGbgCsMsqUFKKg6QM9Z_-25" target="eGbgCsMsqUFKKg6QM9Z_-30" edge="1">
          <mxGeometry relative="1" as="geometry" />
        </mxCell>
        <mxCell id="eGbgCsMsqUFKKg6QM9Z_-25" value="物流文员审批" style="rounded=1;whiteSpace=wrap;html=1;" parent="1" vertex="1">
          <mxGeometry x="960" y="260" width="120" height="60" as="geometry" />
        </mxCell>
        <mxCell id="eGbgCsMsqUFKKg6QM9Z_-38" style="edgeStyle=orthogonalEdgeStyle;rounded=0;orthogonalLoop=1;jettySize=auto;html=1;" parent="1" source="eGbgCsMsqUFKKg6QM9Z_-29" target="eGbgCsMsqUFKKg6QM9Z_-37" edge="1">
          <mxGeometry relative="1" as="geometry" />
        </mxCell>
        <mxCell id="TQtpK1dsAZfY7Ud7Wez9-1" value="" style="edgeStyle=orthogonalEdgeStyle;rounded=0;orthogonalLoop=1;jettySize=auto;html=1;" edge="1" parent="1" source="eGbgCsMsqUFKKg6QM9Z_-29" target="eGbgCsMsqUFKKg6QM9Z_-32">
          <mxGeometry relative="1" as="geometry" />
        </mxCell>
        <mxCell id="eGbgCsMsqUFKKg6QM9Z_-29" value="订单资质审核" style="rounded=1;whiteSpace=wrap;html=1;" parent="1" vertex="1">
          <mxGeometry x="1600" y="205" width="120" height="60" as="geometry" />
        </mxCell>
        <mxCell id="eGbgCsMsqUFKKg6QM9Z_-34" value="易制毒||易制爆" style="edgeStyle=orthogonalEdgeStyle;rounded=0;orthogonalLoop=1;jettySize=auto;html=1;entryX=0;entryY=0.5;entryDx=0;entryDy=0;" parent="1" source="eGbgCsMsqUFKKg6QM9Z_-30" target="eGbgCsMsqUFKKg6QM9Z_-29" edge="1">
          <mxGeometry relative="1" as="geometry" />
        </mxCell>
        <mxCell id="eGbgCsMsqUFKKg6QM9Z_-36" value="非易制毒&amp;amp;&amp;amp;非易制爆" style="edgeStyle=orthogonalEdgeStyle;rounded=0;orthogonalLoop=1;jettySize=auto;html=1;entryX=0;entryY=0.5;entryDx=0;entryDy=0;" parent="1" source="eGbgCsMsqUFKKg6QM9Z_-30" target="eGbgCsMsqUFKKg6QM9Z_-32" edge="1">
          <mxGeometry relative="1" as="geometry" />
        </mxCell>
        <mxCell id="eGbgCsMsqUFKKg6QM9Z_-30" value="" style="rhombus;whiteSpace=wrap;html=1;" parent="1" vertex="1">
          <mxGeometry x="1395" y="272.5" width="50" height="35" as="geometry" />
        </mxCell>
        <mxCell id="eGbgCsMsqUFKKg6QM9Z_-39" style="edgeStyle=orthogonalEdgeStyle;rounded=0;orthogonalLoop=1;jettySize=auto;html=1;entryX=0;entryY=0.5;entryDx=0;entryDy=0;" parent="1" source="eGbgCsMsqUFKKg6QM9Z_-32" target="eGbgCsMsqUFKKg6QM9Z_-37" edge="1">
          <mxGeometry relative="1" as="geometry" />
        </mxCell>
        <mxCell id="eGbgCsMsqUFKKg6QM9Z_-32" value="财务审批" style="rounded=1;whiteSpace=wrap;html=1;" parent="1" vertex="1">
          <mxGeometry x="1600" y="315" width="120" height="60" as="geometry" />
        </mxCell>
        <mxCell id="eGbgCsMsqUFKKg6QM9Z_-37" value="结束" style="ellipse;whiteSpace=wrap;html=1;aspect=fixed;" parent="1" vertex="1">
          <mxGeometry x="1810" y="255" width="80" height="80" as="geometry" />
        </mxCell>
        <mxCell id="eGbgCsMsqUFKKg6QM9Z_-44" value="" style="edgeStyle=orthogonalEdgeStyle;rounded=0;orthogonalLoop=1;jettySize=auto;html=1;" parent="1" source="eGbgCsMsqUFKKg6QM9Z_-40" target="eGbgCsMsqUFKKg6QM9Z_-42" edge="1">
          <mxGeometry relative="1" as="geometry" />
        </mxCell>
        <mxCell id="eGbgCsMsqUFKKg6QM9Z_-40" value="产品经理审批" style="rounded=1;whiteSpace=wrap;html=1;" parent="1" vertex="1">
          <mxGeometry x="640" y="480" width="120" height="60" as="geometry" />
        </mxCell>
        <mxCell id="eGbgCsMsqUFKKg6QM9Z_-47" value="有质量问题" style="edgeStyle=orthogonalEdgeStyle;rounded=0;orthogonalLoop=1;jettySize=auto;html=1;entryX=0;entryY=0.5;entryDx=0;entryDy=0;" parent="1" source="eGbgCsMsqUFKKg6QM9Z_-42" target="eGbgCsMsqUFKKg6QM9Z_-45" edge="1">
          <mxGeometry relative="1" as="geometry" />
        </mxCell>
        <mxCell id="eGbgCsMsqUFKKg6QM9Z_-48" value="无质量问题" style="edgeStyle=orthogonalEdgeStyle;rounded=0;orthogonalLoop=1;jettySize=auto;html=1;entryX=0;entryY=0.5;entryDx=0;entryDy=0;" parent="1" source="eGbgCsMsqUFKKg6QM9Z_-42" target="eGbgCsMsqUFKKg6QM9Z_-46" edge="1">
          <mxGeometry relative="1" as="geometry" />
        </mxCell>
        <mxCell id="eGbgCsMsqUFKKg6QM9Z_-42" value="负责人审批" style="rounded=1;whiteSpace=wrap;html=1;" parent="1" vertex="1">
          <mxGeometry x="800" y="480" width="120" height="60" as="geometry" />
        </mxCell>
        <mxCell id="eGbgCsMsqUFKKg6QM9Z_-49" value="" style="edgeStyle=orthogonalEdgeStyle;rounded=0;orthogonalLoop=1;jettySize=auto;html=1;" parent="1" source="eGbgCsMsqUFKKg6QM9Z_-45" target="eGbgCsMsqUFKKg6QM9Z_-46" edge="1">
          <mxGeometry relative="1" as="geometry" />
        </mxCell>
        <mxCell id="eGbgCsMsqUFKKg6QM9Z_-45" value="采购审批" style="rounded=1;whiteSpace=wrap;html=1;" parent="1" vertex="1">
          <mxGeometry x="1000" y="400" width="120" height="60" as="geometry" />
        </mxCell>
        <mxCell id="eGbgCsMsqUFKKg6QM9Z_-51" style="edgeStyle=orthogonalEdgeStyle;rounded=0;orthogonalLoop=1;jettySize=auto;html=1;entryX=0;entryY=0.5;entryDx=0;entryDy=0;" parent="1" source="eGbgCsMsqUFKKg6QM9Z_-46" target="eGbgCsMsqUFKKg6QM9Z_-50" edge="1">
          <mxGeometry relative="1" as="geometry" />
        </mxCell>
        <mxCell id="eGbgCsMsqUFKKg6QM9Z_-46" value="物流经理审批" style="rounded=1;whiteSpace=wrap;html=1;" parent="1" vertex="1">
          <mxGeometry x="1000" y="550" width="120" height="60" as="geometry" />
        </mxCell>
        <mxCell id="eGbgCsMsqUFKKg6QM9Z_-53" value="" style="edgeStyle=orthogonalEdgeStyle;rounded=0;orthogonalLoop=1;jettySize=auto;html=1;" parent="1" source="eGbgCsMsqUFKKg6QM9Z_-50" target="eGbgCsMsqUFKKg6QM9Z_-52" edge="1">
          <mxGeometry relative="1" as="geometry" />
        </mxCell>
        <mxCell id="eGbgCsMsqUFKKg6QM9Z_-50" value="仓储审批&lt;span style=&quot;white-space: pre;&quot;&gt;&#x9;&lt;/span&gt;" style="rounded=1;whiteSpace=wrap;html=1;" parent="1" vertex="1">
          <mxGeometry x="1190" y="480" width="120" height="60" as="geometry" />
        </mxCell>
        <mxCell id="eGbgCsMsqUFKKg6QM9Z_-81" style="edgeStyle=orthogonalEdgeStyle;rounded=0;orthogonalLoop=1;jettySize=auto;html=1;exitX=0.5;exitY=0;exitDx=0;exitDy=0;entryX=0.5;entryY=1;entryDx=0;entryDy=0;" parent="1" source="eGbgCsMsqUFKKg6QM9Z_-52" target="eGbgCsMsqUFKKg6QM9Z_-30" edge="1">
          <mxGeometry relative="1" as="geometry" />
        </mxCell>
        <mxCell id="eGbgCsMsqUFKKg6QM9Z_-52" value="物流文员审批" style="rounded=1;whiteSpace=wrap;html=1;" parent="1" vertex="1">
          <mxGeometry x="1360" y="480" width="120" height="60" as="geometry" />
        </mxCell>
      </root>
    </mxGraphModel>
  </diagram>
</mxfile>
